<svg width="268" height="53" viewBox="0 0 268 53" fill="none" xmlns="http://www.w3.org/2000/svg">
<path d="M3.34095 46.2274C29.4652 41.3932 31.0575 16.1703 29.0668 3.74294C29.0588 3.6931 29.0895 3.64738 29.138 3.63324L31.2033 3.03024C31.2592 3.01392 31.3171 3.0486 31.3292 3.10555L32.4732 8.51917C32.4769 8.53676 32.4859 8.55371 32.4981 8.56694C54.4325 32.4102 23.2578 57.5551 3.06804 47.8712C3.02795 47.852 3.0051 47.8082 3.01252 47.7644L3.25879 46.3094C3.2658 46.268 3.29961 46.2351 3.34095 46.2274Z" stroke="#FBAF22" stroke-width="6"/>
<path d="M65.584 25.98C66.8853 26.2573 67.9307 26.908 68.72 27.932C69.5093 28.9347 69.904 30.0867 69.904 31.388C69.904 33.2653 69.2427 34.7587 67.92 35.868C66.6187 36.956 64.7947 37.5 62.448 37.5H51.984V15.036H62.096C64.3787 15.036 66.16 15.5587 67.44 16.604C68.7413 17.6493 69.392 19.068 69.392 20.86C69.392 22.1827 69.04 23.2813 68.336 24.156C67.6533 25.0307 66.736 25.6387 65.584 25.98ZM57.456 24.124H61.04C61.936 24.124 62.6187 23.932 63.088 23.548C63.5787 23.1427 63.824 22.556 63.824 21.788C63.824 21.02 63.5787 20.4333 63.088 20.028C62.6187 19.6227 61.936 19.42 61.04 19.42H57.456V24.124ZM61.488 33.084C62.4053 33.084 63.1093 32.8813 63.6 32.476C64.112 32.0493 64.368 31.4413 64.368 30.652C64.368 29.8627 64.1013 29.244 63.568 28.796C63.056 28.348 62.3413 28.124 61.424 28.124H57.456V33.084H61.488ZM71.9898 28.54C71.9898 26.7053 72.3311 25.0947 73.0138 23.708C73.7178 22.3213 74.6671 21.2547 75.8618 20.508C77.0564 19.7613 78.3898 19.388 79.8618 19.388C81.1204 19.388 82.2191 19.644 83.1578 20.156C84.1178 20.668 84.8538 21.34 85.3658 22.172V19.644H90.8378V37.5H85.3658V34.972C84.8324 35.804 84.0858 36.476 83.1258 36.988C82.1871 37.5 81.0884 37.756 79.8298 37.756C78.3791 37.756 77.0564 37.3827 75.8618 36.636C74.6671 35.868 73.7178 34.7907 73.0138 33.404C72.3311 31.996 71.9898 30.3747 71.9898 28.54ZM85.3658 28.572C85.3658 27.2067 84.9818 26.1293 84.2138 25.34C83.4671 24.5507 82.5498 24.156 81.4618 24.156C80.3738 24.156 79.4458 24.5507 78.6778 25.34C77.9311 26.108 77.5578 27.1747 77.5578 28.54C77.5578 29.9053 77.9311 30.9933 78.6778 31.804C79.4458 32.5933 80.3738 32.988 81.4618 32.988C82.5498 32.988 83.4671 32.5933 84.2138 31.804C84.9818 31.0147 85.3658 29.9373 85.3658 28.572ZM105.677 19.452C107.767 19.452 109.431 20.1347 110.669 21.5C111.927 22.844 112.557 24.7 112.557 27.068V37.5H107.117V27.804C107.117 26.6093 106.807 25.6813 106.189 25.02C105.57 24.3587 104.738 24.028 103.693 24.028C102.647 24.028 101.815 24.3587 101.197 25.02C100.578 25.6813 100.269 26.6093 100.269 27.804V37.5H94.7965V19.644H100.269V22.012C100.823 21.2227 101.57 20.604 102.509 20.156C103.447 19.6867 104.503 19.452 105.677 19.452ZM115.271 28.54C115.271 26.7053 115.612 25.0947 116.295 23.708C116.999 22.3213 117.948 21.2547 119.143 20.508C120.338 19.7613 121.671 19.388 123.143 19.388C124.402 19.388 125.5 19.644 126.439 20.156C127.399 20.668 128.135 21.34 128.647 22.172V19.644H134.119V37.5H128.647V34.972C128.114 35.804 127.367 36.476 126.407 36.988C125.468 37.5 124.37 37.756 123.111 37.756C121.66 37.756 120.338 37.3827 119.143 36.636C117.948 35.868 116.999 34.7907 116.295 33.404C115.612 31.996 115.271 30.3747 115.271 28.54ZM128.647 28.572C128.647 27.2067 128.263 26.1293 127.495 25.34C126.748 24.5507 125.831 24.156 124.743 24.156C123.655 24.156 122.727 24.5507 121.959 25.34C121.212 26.108 120.839 27.1747 120.839 28.54C120.839 29.9053 121.212 30.9933 121.959 31.804C122.727 32.5933 123.655 32.988 124.743 32.988C125.831 32.988 126.748 32.5933 127.495 31.804C128.263 31.0147 128.647 29.9373 128.647 28.572ZM148.958 19.452C151.048 19.452 152.712 20.1347 153.95 21.5C155.208 22.844 155.838 24.7 155.838 27.068V37.5H150.398V27.804C150.398 26.6093 150.088 25.6813 149.47 25.02C148.851 24.3587 148.019 24.028 146.974 24.028C145.928 24.028 145.096 24.3587 144.478 25.02C143.859 25.6813 143.55 26.6093 143.55 27.804V37.5H138.078V19.644H143.55V22.012C144.104 21.2227 144.851 20.604 145.79 20.156C146.728 19.6867 147.784 19.452 148.958 19.452ZM158.552 28.54C158.552 26.7053 158.894 25.0947 159.576 23.708C160.28 22.3213 161.23 21.2547 162.424 20.508C163.619 19.7613 164.952 19.388 166.424 19.388C167.683 19.388 168.782 19.644 169.72 20.156C170.68 20.668 171.416 21.34 171.928 22.172V19.644H177.4V37.5H171.928V34.972C171.395 35.804 170.648 36.476 169.688 36.988C168.75 37.5 167.651 37.756 166.392 37.756C164.942 37.756 163.619 37.3827 162.424 36.636C161.23 35.868 160.28 34.7907 159.576 33.404C158.894 31.996 158.552 30.3747 158.552 28.54ZM171.928 28.572C171.928 27.2067 171.544 26.1293 170.776 25.34C170.03 24.5507 169.112 24.156 168.024 24.156C166.936 24.156 166.008 24.5507 165.24 25.34C164.494 26.108 164.12 27.1747 164.12 28.54C164.12 29.9053 164.494 30.9933 165.24 31.804C166.008 32.5933 166.936 32.988 168.024 32.988C169.112 32.988 170.03 32.5933 170.776 31.804C171.544 31.0147 171.928 29.9373 171.928 28.572Z" fill="black"/>
<path d="M195.983 15.036V19.42H186.831V24.156H193.679V28.412H186.831V37.5H181.359V15.036H195.983ZM204.331 13.82V37.5H198.859V13.82H204.331ZM225.929 19.644V37.5H220.457V35.068C219.902 35.8573 219.145 36.4973 218.185 36.988C217.246 37.4573 216.201 37.692 215.049 37.692C213.683 37.692 212.478 37.3933 211.433 36.796C210.387 36.1773 209.577 35.292 209.001 34.14C208.425 32.988 208.137 31.6333 208.137 30.076V19.644H213.577V29.34C213.577 30.5347 213.886 31.4627 214.505 32.124C215.123 32.7853 215.955 33.116 217.001 33.116C218.067 33.116 218.91 32.7853 219.529 32.124C220.147 31.4627 220.457 30.5347 220.457 29.34V19.644H225.929ZM240.419 37.5L236.995 32.54L234.115 37.5H228.195L234.083 28.38L228.035 19.644H234.179L237.603 24.572L240.483 19.644H246.403L240.419 28.636L246.563 37.5H240.419ZM256.8 37.756C255.05 37.756 253.472 37.3827 252.064 36.636C250.677 35.8893 249.578 34.8227 248.768 33.436C247.978 32.0493 247.584 30.428 247.584 28.572C247.584 26.7373 247.989 25.1267 248.799 23.74C249.61 22.332 250.72 21.2547 252.128 20.508C253.536 19.7613 255.114 19.388 256.864 19.388C258.613 19.388 260.192 19.7613 261.6 20.508C263.008 21.2547 264.117 22.332 264.928 23.74C265.738 25.1267 266.144 26.7373 266.144 28.572C266.144 30.4067 265.728 32.028 264.896 33.436C264.085 34.8227 262.965 35.8893 261.536 36.636C260.128 37.3827 258.549 37.756 256.8 37.756ZM256.8 33.02C257.845 33.02 258.73 32.636 259.456 31.868C260.202 31.1 260.576 30.0013 260.576 28.572C260.576 27.1427 260.213 26.044 259.488 25.276C258.784 24.508 257.909 24.124 256.864 24.124C255.797 24.124 254.912 24.508 254.208 25.276C253.504 26.0227 253.152 27.1213 253.152 28.572C253.152 30.0013 253.493 31.1 254.176 31.868C254.88 32.636 255.754 33.02 256.8 33.02Z" fill="#FBAF22"/>
</svg>
