<svg width="168" height="31" viewBox="0 0 168 31" fill="none" xmlns="http://www.w3.org/2000/svg">
<path d="M2.21669 25.9874C16.2781 23.4066 17.1618 10.055 16.0967 3.43568C16.0887 3.38559 16.1195 3.33944 16.1683 3.32543L17.1981 3.02956C17.2538 3.01357 17.3113 3.04806 17.3235 3.10468L17.9287 5.92292C17.9325 5.94066 17.9417 5.95771 17.9541 5.97097C29.781 18.6382 12.9804 31.9911 2.06888 26.8827C2.02831 26.8637 2.00525 26.8197 2.01284 26.7756L2.13433 26.0692C2.14146 26.0278 2.17533 25.995 2.21669 25.9874Z" stroke="#FBAF22" stroke-width="4"/>
<path d="M41.74 15.3C42.5533 15.4733 43.2067 15.88 43.7 16.52C44.1933 17.1467 44.44 17.8667 44.44 18.68C44.44 19.8533 44.0267 20.7867 43.2 21.48C42.3867 22.16 41.2467 22.5 39.78 22.5H33.24V8.46H39.56C40.9867 8.46 42.1 8.78667 42.9 9.44C43.7133 10.0933 44.12 10.98 44.12 12.1C44.12 12.9267 43.9 13.6133 43.46 14.16C43.0333 14.7067 42.46 15.0867 41.74 15.3ZM36.66 14.14H38.9C39.46 14.14 39.8867 14.02 40.18 13.78C40.4867 13.5267 40.64 13.16 40.64 12.68C40.64 12.2 40.4867 11.8333 40.18 11.58C39.8867 11.3267 39.46 11.2 38.9 11.2H36.66V14.14ZM39.18 19.74C39.7533 19.74 40.1933 19.6133 40.5 19.36C40.82 19.0933 40.98 18.7133 40.98 18.22C40.98 17.7267 40.8133 17.34 40.48 17.06C40.16 16.78 39.7133 16.64 39.14 16.64H36.66V19.74H39.18ZM45.7436 16.9C45.7436 15.7533 45.9569 14.7467 46.3836 13.88C46.8236 13.0133 47.4169 12.3467 48.1636 11.88C48.9103 11.4133 49.7436 11.18 50.6636 11.18C51.4503 11.18 52.1369 11.34 52.7236 11.66C53.3236 11.98 53.7836 12.4 54.1036 12.92V11.34H57.5236V22.5H54.1036V20.92C53.7703 21.44 53.3036 21.86 52.7036 22.18C52.1169 22.5 51.4303 22.66 50.6436 22.66C49.7369 22.66 48.9103 22.4267 48.1636 21.96C47.4169 21.48 46.8236 20.8067 46.3836 19.94C45.9569 19.06 45.7436 18.0467 45.7436 16.9ZM54.1036 16.92C54.1036 16.0667 53.8636 15.3933 53.3836 14.9C52.9169 14.4067 52.3436 14.16 51.6636 14.16C50.9836 14.16 50.4036 14.4067 49.9236 14.9C49.4569 15.38 49.2236 16.0467 49.2236 16.9C49.2236 17.7533 49.4569 18.4333 49.9236 18.94C50.4036 19.4333 50.9836 19.68 51.6636 19.68C52.3436 19.68 52.9169 19.4333 53.3836 18.94C53.8636 18.4467 54.1036 17.7733 54.1036 16.92ZM66.7978 11.22C68.1045 11.22 69.1445 11.6467 69.9178 12.5C70.7045 13.34 71.0978 14.5 71.0978 15.98V22.5H67.6978V16.44C67.6978 15.6933 67.5045 15.1133 67.1178 14.7C66.7311 14.2867 66.2111 14.08 65.5578 14.08C64.9045 14.08 64.3845 14.2867 63.9978 14.7C63.6111 15.1133 63.4178 15.6933 63.4178 16.44V22.5H59.9978V11.34H63.4178V12.82C63.7645 12.3267 64.2311 11.94 64.8178 11.66C65.4045 11.3667 66.0645 11.22 66.7978 11.22ZM72.7944 16.9C72.7944 15.7533 73.0077 14.7467 73.4344 13.88C73.8744 13.0133 74.4677 12.3467 75.2144 11.88C75.961 11.4133 76.7944 11.18 77.7144 11.18C78.501 11.18 79.1877 11.34 79.7744 11.66C80.3744 11.98 80.8344 12.4 81.1544 12.92V11.34H84.5744V22.5H81.1544V20.92C80.821 21.44 80.3544 21.86 79.7544 22.18C79.1677 22.5 78.481 22.66 77.6944 22.66C76.7877 22.66 75.961 22.4267 75.2144 21.96C74.4677 21.48 73.8744 20.8067 73.4344 19.94C73.0077 19.06 72.7944 18.0467 72.7944 16.9ZM81.1544 16.92C81.1544 16.0667 80.9144 15.3933 80.4344 14.9C79.9677 14.4067 79.3944 14.16 78.7144 14.16C78.0344 14.16 77.4544 14.4067 76.9744 14.9C76.5077 15.38 76.2744 16.0467 76.2744 16.9C76.2744 17.7533 76.5077 18.4333 76.9744 18.94C77.4544 19.4333 78.0344 19.68 78.7144 19.68C79.3944 19.68 79.9677 19.4333 80.4344 18.94C80.9144 18.4467 81.1544 17.7733 81.1544 16.92ZM93.8486 11.22C95.1553 11.22 96.1953 11.6467 96.9686 12.5C97.7553 13.34 98.1486 14.5 98.1486 15.98V22.5H94.7486V16.44C94.7486 15.6933 94.5553 15.1133 94.1686 14.7C93.7819 14.2867 93.2619 14.08 92.6086 14.08C91.9553 14.08 91.4353 14.2867 91.0486 14.7C90.6619 15.1133 90.4686 15.6933 90.4686 16.44V22.5H87.0486V11.34H90.4686V12.82C90.8153 12.3267 91.2819 11.94 91.8686 11.66C92.4553 11.3667 93.1153 11.22 93.8486 11.22ZM99.8452 16.9C99.8452 15.7533 100.058 14.7467 100.485 13.88C100.925 13.0133 101.518 12.3467 102.265 11.88C103.012 11.4133 103.845 11.18 104.765 11.18C105.552 11.18 106.238 11.34 106.825 11.66C107.425 11.98 107.885 12.4 108.205 12.92V11.34H111.625V22.5H108.205V20.92C107.872 21.44 107.405 21.86 106.805 22.18C106.218 22.5 105.532 22.66 104.745 22.66C103.838 22.66 103.012 22.4267 102.265 21.96C101.518 21.48 100.925 20.8067 100.485 19.94C100.058 19.06 99.8452 18.0467 99.8452 16.9ZM108.205 16.92C108.205 16.0667 107.965 15.3933 107.485 14.9C107.018 14.4067 106.445 14.16 105.765 14.16C105.085 14.16 104.505 14.4067 104.025 14.9C103.558 15.38 103.325 16.0467 103.325 16.9C103.325 17.7533 103.558 18.4333 104.025 18.94C104.505 19.4333 105.085 19.68 105.765 19.68C106.445 19.68 107.018 19.4333 107.485 18.94C107.965 18.4467 108.205 17.7733 108.205 16.92Z" fill="white"/>
<path d="M123.239 8.46V11.2H117.519V14.16H121.799V16.82H117.519V22.5H114.099V8.46H123.239ZM128.457 7.7V22.5H125.037V7.7H128.457ZM141.955 11.34V22.5H138.535V20.98C138.189 21.4733 137.715 21.8733 137.115 22.18C136.529 22.4733 135.875 22.62 135.155 22.62C134.302 22.62 133.549 22.4333 132.895 22.06C132.242 21.6733 131.735 21.12 131.375 20.4C131.015 19.68 130.835 18.8333 130.835 17.86V11.34H134.235V17.4C134.235 18.1467 134.429 18.7267 134.815 19.14C135.202 19.5533 135.722 19.76 136.375 19.76C137.042 19.76 137.569 19.5533 137.955 19.14C138.342 18.7267 138.535 18.1467 138.535 17.4V11.34H141.955ZM151.012 22.5L148.872 19.4L147.072 22.5H143.372L147.052 16.8L143.272 11.34H147.112L149.252 14.42L151.052 11.34H154.752L151.012 16.96L154.852 22.5H151.012ZM161.25 22.66C160.156 22.66 159.17 22.4267 158.29 21.96C157.423 21.4933 156.736 20.8267 156.23 19.96C155.736 19.0933 155.49 18.08 155.49 16.92C155.49 15.7733 155.743 14.7667 156.25 13.9C156.756 13.02 157.45 12.3467 158.33 11.88C159.21 11.4133 160.196 11.18 161.29 11.18C162.383 11.18 163.37 11.4133 164.25 11.88C165.13 12.3467 165.823 13.02 166.33 13.9C166.836 14.7667 167.09 15.7733 167.09 16.92C167.09 18.0667 166.83 19.08 166.31 19.96C165.803 20.8267 165.103 21.4933 164.21 21.96C163.33 22.4267 162.343 22.66 161.25 22.66ZM161.25 19.7C161.903 19.7 162.456 19.46 162.91 18.98C163.376 18.5 163.61 17.8133 163.61 16.92C163.61 16.0267 163.383 15.34 162.93 14.86C162.49 14.38 161.943 14.14 161.29 14.14C160.623 14.14 160.07 14.38 159.63 14.86C159.19 15.3267 158.97 16.0133 158.97 16.92C158.97 17.8133 159.183 18.5 159.61 18.98C160.05 19.46 160.596 19.7 161.25 19.7Z" fill="#FBAF22"/>
</svg>
